# xmcd
#
# Track frame offsets:
# 150
# 11875
# 30030
# 52737
# 72292
# 94060
# 107692
# 123887
# 141267
# 161284
# 181742
# 199382
# 221617
# 238475
#
# Disc length: 3334 seconds
#
#
# Revision: 0
# Processed by: cddbd v1.5.2PL0 Copyright (c) Steve Scherf et al.
# Submitted via: FreeRIP 2.942 
#
DISCID=ba0d040e
DTITLE=Diverse - Calgonit Powerball Powerhits
DYEAR=1900
DGENRE=Pop
TTITLE0=Riesig einkaufen bei real - Music Works
TTITLE1=It's my life - Dr. Alban
TTITLE2=You're the voice - John Farnham
TTITLE3=Hijo de la Luna - Mecano
TTITLE4=Sara - Starship
TTITLE5=Ice in the sunshine - Beagle Music Ltd.
TTITLE6=Here we go - N'sync
TTITLE7=You're my heart - Modern Talking
TTITLE8=A Moment of Love - La Bouche
TTITLE9=Where do you go - No Mercy
TTITLE10=I can't get no sleep - Touche
TTITLE11=Megamix '98 - C.C. Catch
TTITLE12=Stand by me - The Cause
TTITLE13=Riesig einkaufen bei real - Music Works
EXTD=
EXTT0=
EXTT1=
EXTT2=
EXTT3=
EXTT4=
EXTT5=
EXTT6=
EXTT7=
EXTT8=
EXTT9=
EXTT10=
EXTT11=
EXTT12=
EXTT13=
PLAYORDER=
